<svg width="1257" height="675" viewBox="0 0 1257 675" fill="none" xmlns="http://www.w3.org/2000/svg">
<g filter="url(#filter0_f_88_14)">
<path d="M313.067 308.254L379.556 305.733L388.329 305.4L470.47 313.255L490.553 318.538L610.853 332.782L638.836 339.109L734.876 335.467C745.957 335.046 819.032 327.35 854.184 323.554L932.495 327.972C938.645 331.62 950.984 339.987 951.147 344.28C951.351 349.645 939.113 356.154 933.648 358.376C928.184 360.598 896.605 369.184 886.908 369.552C879.151 369.846 804.451 361.485 768.07 357.267L665.799 355.101L594.231 333.412L471.208 332.705L361.316 336.872L350.845 353.389L306.392 351.716L305.4 325.56L313.067 308.254Z" fill="url(#paint0_linear_88_14)"/>
</g>
<defs>
<filter id="filter0_f_88_14" x="0.000396729" y="0" width="1256.55" height="674.959" filterUnits="userSpaceOnUse" color-interpolation-filters="sRGB">
<feFlood flood-opacity="0" result="BackgroundImageFix"/>
<feBlend mode="normal" in="SourceGraphic" in2="BackgroundImageFix" result="shape"/>
<feGaussianBlur stdDeviation="152.7" result="effect1_foregroundBlur_88_14"/>
</filter>
<linearGradient id="paint0_linear_88_14" x1="306.329" y1="350.04" x2="950.439" y2="325.613" gradientUnits="userSpaceOnUse">
<stop stop-color="#0080FF"/>
<stop offset="0.245192" stop-color="#A1D0FF"/>
<stop offset="0.495192" stop-color="white"/>
<stop offset="0.774038" stop-color="#90C8FF"/>
<stop offset="1" stop-color="#0C86FE"/>
</linearGradient>
</defs>
</svg>
